<svg id="Layer_1" data-name="Layer 1" xmlns="http://www.w3.org/2000/svg" xmlns:xlink="http://www.w3.org/1999/xlink" viewBox="0 0 35.01 35"><defs><style>.cls-1{fill:url(#linear-gradient);}.cls-2{fill:#7f72d0;}</style><linearGradient id="linear-gradient" x1="-0.08" y1="774.5" x2="34.73" y2="774.5" gradientTransform="translate(0 -757)" gradientUnits="userSpaceOnUse"><stop offset="0" stop-color="#7f68fc"/><stop offset="0.28" stop-color="#9084fc"/><stop offset="1" stop-color="#a197fd"/></linearGradient></defs><title>bot</title><path class="cls-1" d="M28.2,0H5.8A5.7,5.7,0,0,0,3.6.4,5.62,5.62,0,0,0,0,5.5V29.2a5.66,5.66,0,0,0,.7,2.9,5.43,5.43,0,0,0,3.6,2.7V17a4.28,4.28,0,0,1,.8-2.9A4.56,4.56,0,0,1,8,12.4V7.7A2.83,2.83,0,0,1,6.6,5.9,2.43,2.43,0,0,1,7.7,3.3a2.73,2.73,0,0,1,3,.1,2.68,2.68,0,0,1,.9,2.8,2.43,2.43,0,0,1-1.3,1.5v4.7h16a4,4,0,0,1,3.1,1.3,4.23,4.23,0,0,1,1.2,3v5.7a4.23,4.23,0,0,1-2.7,3.9,5.11,5.11,0,0,1-2.1.3H13.9V35H29.5a5.69,5.69,0,0,0,5.2-3.9,8.52,8.52,0,0,0,.3-3.2V5.8A5.58,5.58,0,0,0,31,.3a6.8,6.8,0,0,0-2-.2L28.2,0Z"/><path class="cls-2" d="M12.9,16.5a3.24,3.24,0,0,0-.7,5.9,3.29,3.29,0,0,0,2.9.1,3.17,3.17,0,0,0,1.6-4,3.26,3.26,0,0,0-3-2.1A2.2,2.2,0,0,0,12.9,16.5Z"/><path class="cls-2" d="M22.2,16.5a3.18,3.18,0,0,0-2.1,3.8,3.22,3.22,0,0,0,3.8,2.4,3.25,3.25,0,0,0-.7-6.4C22.8,16.4,22.5,16.4,22.2,16.5Z"/></svg>